<svg xmlns="http://www.w3.org/2000/svg" viewBox="0 0 33 33"><rect width="33" height="33" fill="#fff"/><path fill="#000" d="M4,4h7v1h-7zM13,4h2v1h-2zM16,4h2v1h-2zM20,4h1v1h-1zM22,4h7v1h-7zM4,5h1v1h-1zM10,5h1v1h-1zM15,5h1v1h-1zM17,5h4v1h-4zM22,5h1v1h-1zM28,5h1v1h-1zM4,6h1v1h-1zM6,6h3v1h-3zM10,6h1v1h-1zM12,6h1v1h-1zM14,6h2v1h-2zM20,6h1v1h-1zM22,6h1v1h-1zM24,6h3v1h-3zM28,6h1v1h-1zM4,7h1v1h-1zM6,7h3v1h-3zM10,7h1v1h-1zM12,7h2v1h-2zM15,7h1v1h-1zM17,7h2v1h-2zM22,7h1v1h-1zM24,7h3v1h-3zM28,7h1v1h-1zM4,8h1v1h-1zM6,8h3v1h-3zM10,8h1v1h-1zM12,8h1v1h-1zM14,8h1v1h-1zM16,8h2v1h-2zM20,8h1v1h-1zM22,8h1v1h-1zM24,8h3v1h-3zM28,8h1v1h-1zM4,9h1v1h-1zM10,9h1v1h-1zM12,9h1v1h-1zM16,9h4v1h-4zM22,9h1v1h-1zM28,9h1v1h-1zM4,10h7v1h-7zM12,10h1v1h-1zM14,10h1v1h-1zM16,10h1v1h-1zM18,10h1v1h-1zM20,10h1v1h-1zM22,10h7v1h-7zM12,11h4v1h-4zM18,11h1v1h-1zM20,11h1v1h-1zM4,12h1v1h-1zM6,12h5v1h-5zM13,12h3v1h-3zM17,12h3v1h-3zM22,12h5v1h-5zM4,13h2v1h-2zM7,13h3v1h-3zM13,13h3v1h-3zM18,13h1v1h-1zM20,13h1v1h-1zM23,13h1v1h-1zM27,13h1v1h-1zM5,14h3v1h-3zM9,14h4v1h-4zM14,14h1v1h-1zM16,14h4v1h-4zM22,14h2v1h-2zM25,14h1v1h-1zM27,14h2v1h-2zM4,15h1v1h-1zM7,15h1v1h-1zM9,15h1v1h-1zM11,15h1v1h-1zM13,15h1v1h-1zM15,15h1v1h-1zM20,15h5v1h-5zM28,15h1v1h-1zM4,16h2v1h-2zM10,16h2v1h-2zM13,16h1v1h-1zM15,16h4v1h-4zM21,16h2v1h-2zM24,16h1v1h-1zM26,16h3v1h-3zM4,17h2v1h-2zM7,17h1v1h-1zM11,17h1v1h-1zM14,17h1v1h-1zM16,17h2v1h-2zM20,17h2v1h-2zM23,17h1v1h-1zM25,17h1v1h-1zM27,17h1v1h-1zM4,18h1v1h-1zM7,18h1v1h-1zM10,18h1v1h-1zM13,18h2v1h-2zM16,18h1v1h-1zM19,18h2v1h-2zM22,18h4v1h-4zM27,18h2v1h-2zM4,19h1v1h-1zM6,19h2v1h-2zM9,19h1v1h-1zM11,19h3v1h-3zM15,19h2v1h-2zM18,19h2v1h-2zM22,19h3v1h-3zM28,19h1v1h-1zM4,20h1v1h-1zM7,20h1v1h-1zM10,20h3v1h-3zM17,20h2v1h-2zM20,20h5v1h-5zM26,20h1v1h-1zM12,21h4v1h-4zM19,21h2v1h-2zM24,21h2v1h-2zM4,22h7v1h-7zM13,22h2v1h-2zM16,22h2v1h-2zM20,22h1v1h-1zM22,22h1v1h-1zM24,22h1v1h-1zM26,22h3v1h-3zM4,23h1v1h-1zM10,23h1v1h-1zM12,23h2v1h-2zM15,23h1v1h-1zM18,23h1v1h-1zM20,23h1v1h-1zM24,23h2v1h-2zM4,24h1v1h-1zM6,24h3v1h-3zM10,24h1v1h-1zM12,24h3v1h-3zM16,24h9v1h-9zM26,24h1v1h-1zM4,25h1v1h-1zM6,25h3v1h-3zM10,25h1v1h-1zM12,25h2v1h-2zM15,25h1v1h-1zM19,25h4v1h-4zM24,25h5v1h-5zM4,26h1v1h-1zM6,26h3v1h-3zM10,26h1v1h-1zM12,26h1v1h-1zM14,26h1v1h-1zM16,26h1v1h-1zM18,26h1v1h-1zM20,26h2v1h-2zM25,26h2v1h-2zM28,26h1v1h-1zM4,27h1v1h-1zM10,27h1v1h-1zM13,27h1v1h-1zM15,27h1v1h-1zM18,27h3v1h-3zM22,27h4v1h-4zM28,27h1v1h-1zM4,28h7v1h-7zM12,28h1v1h-1zM14,28h4v1h-4zM19,28h1v1h-1zM21,28h1v1h-1zM23,28h6v1h-6z"/></svg>